# xmcd
#
# Track frame offsets:
#	150
#	16340
#	29107
#	50575
#	69287
#	85425
#	107510
#	126602
#	146030
#	162184
#	179532
#	197657
#	213792
#	230980
#
# Disc length: 3290 seconds
#
# Revision: 1
# Processed by: cddbd v1.5.1PL2 Copyright (c) Steve Scherf et al.
# Submitted via: EasyCDDAExtractor 6.5.5.1
#
DISCID=d10cd80e
DTITLE=Chitaozinho e Xororo - Marketing Estrategico
DYEAR=2000
DGENRE=Country
TTITLE0=Coracao Sertanejo
TTITLE1=Na Aba Do Meu Chapeu
TTITLE2=Um Homem Quando Ama
TTITLE3=Nuvem De Lagrimas
TTITLE4=Saudade Dela
TTITLE5=Evidencias
TTITLE6=No Rancho Fundo
TTITLE7=A Minha Vida
TTITLE8=Pagina De Amigos
TTITLE9=So Quem Amou Demais
TTITLE10=Brincar De Ser Feliz
TTITLE11=40 E 20
TTITLE12=Ela Nao Vai Mais Chorar
TTITLE13=Deixei De Ser Cowboy Por Ela
EXTD=
EXTT0=
EXTT1=
EXTT2=
EXTT3=
EXTT4=
EXTT5=
EXTT6=
EXTT7=
EXTT8=
EXTT9=
EXTT10=
EXTT11=
EXTT12=
EXTT13=
PLAYORDER=
